# xmcd CD database file
#
# Track frame offsets:
#	150
#	14650
#	28290
#	42135
#	54202
#	68070
#	80953
#	93680
#	106350
#	113800
#	143303
#	166224
#	194450
#	225094
#	250330
#
# Disc length: 3725 seconds
#
# Revision: 0
# Processed by: cddbd v1.5.2PL0 Copyright (c) Steve Scherf et al.
# Submitted via: CDex 1.70beta2
#
DISCID=c20e8b0f
DTITLE=Various Artist - Jazz Roads CD338 - Bebop - Fats Navarro Vol.6 (1949-50)
DYEAR=2008
DGENRE=Jazz
TTITLE0=Bud Powell's Modernists - Bouncing With Bud (1)
TTITLE1=Bud Powell's Modernists - Bouncing With Bud (2)
TTITLE2=Bud Powell's Modernists - Bouncing With Bud (3)
TTITLE3=Bud Powell's Modernists - Wail (1)
TTITLE4=Bud Powell's Modernists - Wail (2)
TTITLE5=Bud Powell's Modernists - Dance Of The Infidels (1)
TTITLE6=Bud Powell's Modernists - Dance Of The Infidels (2)
TTITLE7=Bud Powell's Modernists - 52nd Street Theme
TTITLE8=Charlie Parker Quintet - 52nd Street Theme
TTITLE9=Charlie Parker Quintet - Wahoo
TTITLE10=Charlie Parker Quintet - Round Midnight
TTITLE11=Charlie Parker Quintet - This Time The Dream's On Me
TTITLE12=Charlie Parker Quintet - Dizzy Atmosphere
TTITLE13=Charlie Parker Quintet - A Night In Tunisia
TTITLE14=Charlie Parker Quintet - Move and 52nd Street Theme
EXTD=YEAR: 2008
EXTT0=
EXTT1=
EXTT2=
EXTT3=
EXTT4=
EXTT5=
EXTT6=
EXTT7=
EXTT8=
EXTT9=
EXTT10=
EXTT11=
EXTT12=
EXTT13=
EXTT14=
PLAYORDER=
